<svg xmlns="http://www.w3.org/2000/svg" version="1.1" viewBox="0 0 91 24">
<title>payment/paypal white</title>
<desc>Created with Sketch.</desc>
<g fill="none" fill-rule="evenodd">
<path d="m83.979 6.429-1.994 12.644c-0.038841 0.24473 0.15098 0.46637 0.39969 0.46637h2.006c0.33203 0 0.61519-0.24099 0.66656-0.56813l1.9665-12.417c0.038841-0.24473-0.15098-0.46637-0.40031-0.46637h-2.244c-0.19984 0-0.36962 0.14422-0.40031 0.34088" fill="#fff"/>
<path id="c" d="m77.995 15.08c-0.2249 1.3248-1.2799 2.2145-2.6262 2.2145-0.67471 0-1.2153-0.21664-1.5624-0.6262-0.34456-0.40581-0.47361-0.98456-0.3646-1.6282 0.20924-1.3136 1.2818-2.2313 2.6074-2.2313 0.66092 0 1.1972 0.21851 1.5511 0.63181 0.35646 0.41642 0.49679 0.99829 0.39467 1.6395m3.2426-4.5132h-2.3267c-0.19922 0-0.36899 0.14422-0.40031 0.34088l-0.10211 0.64805-0.16288-0.23475c-0.50368-0.72858-1.6269-0.97269-2.7483-0.97269-2.5704 0-4.7662 1.9416-5.1934 4.6643-0.2224 1.3585 0.093344 2.6565 0.86641 3.5624 0.70979 0.83222 1.7228 1.1787 2.93 1.1787 2.0724 0 3.2213-1.3261 3.2213-1.3261l-0.10399 0.6443c-0.038841 0.24473 0.15098 0.46637 0.40031 0.46637h2.0949c0.33265 0 0.61519-0.24036 0.66719-0.56751l1.2579-7.9376c0.038841-0.24473-0.15161-0.46637-0.40031-0.46637" fill="#fff"/>
<path id="d" d="m67.275 10.623c-0.26562 1.7381-1.5975 1.7381-2.8861 1.7381h-0.73297l0.51433-3.2452c0.030697-0.19604 0.20047-0.34026 0.39969-0.34026h0.33641c0.87706 0 1.7052 0 2.1325 0.49758 0.2556 0.2978 0.33265 0.73982 0.23618 1.3498m-0.56069-4.5351h-4.8589c-0.33265 0-0.61519 0.24099-0.66719 0.56813l-1.9646 12.417c-0.038841 0.24473 0.15161 0.46637 0.39969 0.46637h2.4933c0.23242 0 0.43038-0.16857 0.46672-0.39707l0.55756-3.5206c0.05137-0.32714 0.33453-0.56813 0.66656-0.56813h1.5374c3.2006 0 5.0481-1.5433 5.5305-4.6031 0.21738-1.3373 0.0087706-2.3887-0.61958-3.1247-0.69099-0.80912-1.9157-1.2374-3.5414-1.2374" fill="#fff"/>
<path d="m58.973 10.567h-2.3386c-0.22365 0-0.43289 0.11051-0.55818 0.2953l-3.2263 4.7349-1.367-4.5501c-0.085826-0.28469-0.34894-0.4801-0.64714-0.4801h-2.2985c-0.27753 0-0.47298 0.2722-0.3834 0.5338l2.5748 7.5331-2.4219 3.4057c-0.18982 0.26721 0.0018794 0.63681 0.33078 0.63681h2.3361c0.22114 0 0.4285-0.10801 0.55505-0.28906l7.777-11.187c0.18606-0.26783-0.0056382-0.63369-0.33265-0.63369" fill="#fff"/>
<path d="m43.338 15.08c-0.2249 1.3248-1.2799 2.2145-2.6262 2.2145-0.67471 0-1.2153-0.21664-1.5624-0.6262-0.34393-0.40581-0.47361-0.98456-0.3646-1.6282 0.20924-1.3136 1.2818-2.2313 2.6074-2.2313 0.66092 0 1.1972 0.21851 1.5511 0.63181 0.35646 0.41642 0.49679 0.99829 0.39467 1.6395m3.2426-4.5132h-2.3267c-0.19922 0-0.36899 0.14422-0.40031 0.34088l-0.10211 0.64805-0.16226-0.23475c-0.50431-0.72858-1.6276-0.97269-2.7489-0.97269-2.5704 0-4.7662 1.9416-5.1934 4.6643-0.2224 1.3585 0.093344 2.6565 0.86641 3.5624 0.70979 0.83222 1.7228 1.1787 2.93 1.1787 2.0724 0 3.2213-1.3261 3.2213-1.3261l-0.10399 0.6443c-0.038841 0.24473 0.15098 0.46637 0.40031 0.46637h2.0949c0.33265 0 0.61519-0.24036 0.66719-0.56751l1.2579-7.9376c0.038841-0.24473-0.15161-0.46637-0.40031-0.46637" fill="#fff"/>
<path d="m32.619 10.623c-0.26562 1.7381-1.5975 1.7381-2.8861 1.7381h-0.73297l0.51433-3.2452c0.030697-0.19604 0.20047-0.34026 0.39969-0.34026h0.33641c0.87706 0 1.7052 0 2.1325 0.49758 0.2556 0.2978 0.33265 0.73982 0.23618 1.3498m-0.56069-4.5351h-4.8589c-0.33265 0-0.61519 0.24099-0.66719 0.56813l-1.9646 12.417c-0.038841 0.24473 0.15098 0.46637 0.39969 0.46637h2.3204c0.33203 0 0.61457-0.24099 0.66656-0.56751l0.53062-3.3501c0.05137-0.32714 0.33453-0.56813 0.66656-0.56813h1.5374c3.2006 0 5.0481-1.5433 5.5305-4.6031 0.21738-1.3373 0.0087706-2.3887-0.61958-3.1247-0.69099-0.80912-1.9157-1.2374-3.5414-1.2374" fill="#fff"/>
<g transform="translate(1)" fill-rule="nonzero">
<path id="Shape" d="m15.105 7.2419c0.21467-1.6092 0-2.6826-0.86173-3.7551-0.93303-1.0733-2.5837-1.5333-4.6652-1.5333h-6.1004c-0.43087 0-0.78967 0.30667-0.86173 0.76667l-2.5116 17.014c-0.072067 0.38257 0.14337 0.68923 0.50217 0.68923h3.8042l-0.2875 1.7626c-0.0713 0.23 0.21543 0.53667 0.43087 0.53667h3.23c0.3588 0 0.64553-0.30667 0.7176-0.68923l0.0713-0.15333 0.57423-3.9851 0.072067-0.23c0.072067-0.46 0.3588-0.69 0.7176-0.69h0.50217c3.0866 0 5.4548-1.3792 6.1732-5.1351 0.28673-1.6092 0.14337-2.9885-0.6463-3.9085-0.28673-0.22923-0.57423-0.5359-0.86097-0.68923" fill="#fff" opacity=".7"/>
<path id="Shape" d="m15.105 7.2419c0.21467-1.6092 0-2.6826-0.86173-3.7551-0.93303-1.0733-2.5837-1.5333-4.6652-1.5333h-6.1004c-0.43087 0-0.78967 0.30667-0.86173 0.76667l-2.5116 17.014c-0.072067 0.38257 0.14337 0.68923 0.50217 0.68923h3.8042l0.93303-6.361-0.072067 0.23c0.14337-0.45923 0.43087-0.7659 0.93303-0.7659h1.794c3.5175 0 6.2445-1.5333 7.0342-5.901 0-0.15333 0-0.30667 0.072067-0.38333" fill="#fff" opacity=".7"/>
<path id="Shape" d="m6.348 7.2419c0-0.23 0.14413-0.46 0.43087-0.61333 0.072067 0 0.21543-0.076667 0.28673-0.076667h4.8093c0.57423 0 1.0764 0.076667 1.5786 0.15333 0.14413 0 0.21543 0 0.43087 0.076667 0.072067 0.076667 0.21543 0.076667 0.3588 0.15333 0.072067 0 0.072067 0 0.21543 0.076667 0.21543 0.076667 0.43087 0.15333 0.6463 0.23 0.21467-1.6092 0-2.6826-0.86173-3.6785-0.93303-1.0733-2.5837-1.61-4.6652-1.61h-6.1004c-0.43087 0-0.78967 0.38333-0.86173 0.76667l-2.5116 17.014c-0.072067 0.38257 0.14337 0.68923 0.50217 0.68923h3.8042l0.93303-6.361 1.0043-6.8203z" fill="#fff"/>
<g transform="translate(.077771 .48964)" fill="#231F20" opacity=".2">
<path id="Shape" d="m14.997 6.7361c0.34344 0.20168 0.64872 0.44369 0.87768 0.72605 0.3816 0.44369 0.61056 1.0084 0.72504 1.6538 0.11448-1.2907-0.07632-2.3395-0.72504-3.1462-0.22896-0.28235-0.49608-0.48403-0.80136-0.68571 0 0.44369 0 0.92772-0.07632 1.4521z"/>
<path id="b" d="m0.15264 18.232 2.4041-15.973c0.03816-0.44369 0.41976-0.76638 0.83952-0.76638h6.1056c2.0988 0 3.7397 0.48403 4.6555 1.5731 0.45792 0.5647 0.72504 1.2101 0.83952 1.9361 0.15264-1.4521-0.07632-2.4605-0.83952-3.3882-0.91584-1.1294-2.5567-1.6134-4.6555-1.6134h-6.1056c-0.41976 0-0.80136 0.32269-0.87768 0.76638l-2.5185 17.022c0 0.16134 0.03816 0.32269 0.15264 0.44369z"/>
<path d="m4.0977 19.926-0.049774 0.24202c-0.049774 0.16134 0.049774 0.32269 0.19909 0.44369l0.14932-0.68571h-0.29864z"/>
</g>
</g>
</g>
</svg>