<svg class="logo_3VIi3" viewBox="0 0 252 67" fill="none" xmlns="http://www.w3.org/2000/svg"><g clip-path="url(#a)"><path d="M108.543 9.603h13.197v10.563h-13.197l-3.279-3.086v-4.363l3.279-3.114Z" fill="#FFF100"/><path d="M107.884 14.87a.658.658 0 1 1-.658-.658c.37.014.658.302.658.659ZM11.894 8.34l.26-.095c.165-.083.358-.206.59-.398.234-.192.454-.412.687-.659.233-.247.425-.576.59-.987.164-.412.247-.85.247-1.304 0-1.207-.55-2.236-1.633-3.1C11.551.933 10.07.494 8.19.494H.055v16.654H8.67c2.209 0 6.777-.411 6.777-4.76.014-3.334-3.47-4.02-3.553-4.047ZM5.446 4.39h1.99c.397 0 .727.123.974.356.247.234.384.522.384.865 0 .343-.124.63-.384.864-.247.233-.577.357-.974.357h-1.99V4.39Zm3.718 8.464c-.315.288-.7.44-1.166.44H5.446v-2.991h2.538c.467 0 .865.15 1.166.439.316.288.467.644.467 1.056a1.32 1.32 0 0 1-.453 1.056ZM29.262 13.101H21.21v-2.62h6.572V6.667h-6.572V4.541h8.08V.48H15.819v16.668h13.444v-4.047ZM43.05.48v4.06h4.417v12.608h5.35V4.541h4.404V.48H43.05ZM36.958 12.84c-.288.261-.7.385-1.22.385-.522 0-1.07-.137-1.633-.425-.563-.289-.947-.522-1.139-.686-.11-.096-.206-.192-.288-.261l-3.183 3.018.206.206c.192.206.494.439.892.727.398.274.864.562 1.4.837a8.974 8.974 0 0 0 1.988.713c.796.192 1.62.302 2.456.302 2.113 0 3.786-.549 5.035-1.646 1.248-1.098 1.866-2.415 1.866-3.951 0-.892-.179-1.674-.535-2.346-.357-.672-.81-1.18-1.345-1.523a12.445 12.445 0 0 0-1.756-.919 10.783 10.783 0 0 0-1.605-.563 1.743 1.743 0 0 1-.137-.04c-.535-.124-.988-.289-1.345-.495-.356-.192-.535-.425-.535-.685 0-.316.124-.563.37-.769.248-.206.604-.302 1.057-.302 1.084 0 1.756.494 2.1.837l3.196-3.032-.055-.068c-.137-.178-.384-.384-.727-.604-.343-.233-.741-.453-1.194-.686-.453-.233-1.043-.439-1.77-.603A9.306 9.306 0 0 0 36.794 0c-2.003 0-3.608.535-4.83 1.591-1.22 1.057-1.824 2.305-1.824 3.732 0 .754.137 1.44.412 2.044.274.604.617 1.084 1.029 1.44.425.357.891.673 1.399.947.439.233.864.412 1.303.576l.247.082c.521.165 1.002.316 1.413.467.425.137.768.302 1.043.453.274.164.411.356.411.576 0 .357-.137.672-.439.933ZM72.449 8.34l.26-.095c.165-.083.357-.206.59-.398.234-.192.453-.412.686-.659.234-.247.426-.576.59-.987.165-.412.247-.85.247-1.304 0-1.207-.549-2.236-1.632-3.1C72.106.933 70.624.494 68.745.494h-8.122v16.654h8.602c2.209 0 6.777-.411 6.777-4.76 0-3.334-3.485-4.02-3.553-4.047Zm-6.434-3.95h1.975c.398 0 .727.123.974.356.247.234.384.522.384.865 0 .343-.123.63-.384.864-.247.233-.576.357-.974.357h-1.975V4.39Zm3.69 8.464c-.315.288-.7.44-1.166.44h-2.524v-2.991h2.524c.466 0 .864.15 1.166.439.316.288.466.644.466 1.056 0 .412-.15.768-.466 1.056ZM85.55 10.385c0 1.097-.891 1.99-1.989 2.003a2 2 0 0 1-2.017-2.003V.48H76.14v9.644a7.201 7.201 0 0 0 7.203 7.203h.343a7.201 7.201 0 0 0 7.202-7.203V.48h-5.35v9.905h.013ZM100.106 6.16 96.58.48h-5.405l6.242 10.728v5.954h5.391v-5.954L109.05.48h-5.405l-3.539 5.68ZM0 25.394h12.676c8.876 0 14.254 3.91 14.254 11.88v.206c0 7.97-5.652 11.73-13.993 11.73H7.86v13.938H0V25.394ZM12.566 43.57c4.39 0 6.709-2.113 6.709-6.078v-.205c0-4.17-2.483-5.803-6.654-5.803H7.875v12.1h4.691v-.014ZM30.58 35.532h7.078v5.227c1.742-3.65 4.39-5.598 8.972-5.653v6.6c-5.652.054-8.972 1.851-8.972 7.394v14.048h-7.079V35.532ZM48.221 49.635v-.425c0-8.616 6.174-14.31 14.419-14.31 8.135 0 14.308 5.598 14.308 14.159v.425c0 8.657-6.173 14.254-14.363 14.254-8.231 0-14.364-5.543-14.364-14.103Zm21.498-.096v-.37c0-5.488-2.634-8.767-7.08-8.767-4.485 0-7.188 3.224-7.188 8.657v.425c0 5.487 2.593 8.821 7.189 8.821 4.431 0 7.079-3.388 7.079-8.766ZM82.23 55.19V40.719h-3.649v-5.186h3.65v-6.023h7.078v6.023h5.913v5.172h-5.913v13.842c0 2.319 1.111 3.375 3.114 3.375 1.166 0 2.113-.165 3.005-.48v5.542c-1.111.316-2.538.686-4.541.686-5.639.014-8.657-2.99-8.657-8.478ZM97.664 49.69v-.426c0-8.656 5.968-14.363 13.993-14.363 6.969 0 13.252 4.115 13.252 14.048v1.948h-20.07c.261 4.911 2.798 7.655 7.23 7.655 3.649 0 5.487-1.482 5.967-4.02h6.764c-.892 5.913-5.598 9.192-12.937 9.192-8.231.014-14.2-5.268-14.2-14.034Zm20.276-3.28c-.26-4.43-2.538-6.502-6.283-6.502-3.649 0-6.077 2.428-6.708 6.503h12.991ZM127.283 49.69v-.426c0-8.876 6.283-14.363 14.103-14.363 6.283 0 12.1 2.853 12.785 10.563h-6.708c-.576-3.43-2.744-4.966-5.968-4.966-4.115 0-6.969 3.17-6.969 8.657v.425c0 5.762 2.744 8.766 7.134 8.766 3.224 0 5.858-1.907 6.283-5.652h6.393c-.425 6.544-5.117 11.044-12.992 11.044-8.039 0-14.061-5.117-14.061-14.048ZM159.398 55.19V40.719h-3.649v-5.186h3.649v-6.023h7.079v6.023h5.913v5.172h-5.913v13.842c0 2.319 1.111 3.375 3.114 3.375 1.166 0 2.113-.165 3.005-.48v5.542c-1.111.316-2.538.686-4.541.686-5.639.014-8.657-2.99-8.657-8.478ZM175.929 28.192c0-2.222 1.798-3.965 4.116-3.965 2.277 0 4.116 1.743 4.116 3.965 0 2.278-1.852 3.965-4.116 3.965-2.318 0-4.116-1.687-4.116-3.965Zm.632 7.34h7.078v27.63h-7.078v-27.63ZM187.769 49.635v-.425c0-8.616 6.173-14.31 14.418-14.31 8.135 0 14.309 5.598 14.309 14.159v.425c0 8.657-6.174 14.254-14.364 14.254-8.245 0-14.363-5.543-14.363-14.103Zm21.483-.096v-.37c0-5.488-2.634-8.767-7.078-8.767-4.487 0-7.189 3.224-7.189 8.657v.425c0 5.487 2.593 8.821 7.189 8.821 4.444 0 7.078-3.388 7.078-8.766ZM220.461 35.532h7.078v4.431c1.372-2.744 4.432-5.076 8.973-5.076 5.487 0 9.342 3.224 9.342 10.77v17.477h-7.079V46.521c0-3.91-1.591-5.762-5.117-5.762-3.375 0-6.132 2.112-6.132 6.338v16.05h-7.065V35.533ZM248.831 37.987h-.631v-.22h1.523v.22h-.631v1.948h-.261v-1.948ZM249.956 37.781h.37l.659 1.893.658-1.893H252v2.154h-.261v-1.81l-.644 1.81h-.247l-.645-1.81v1.81h-.247v-2.154Z" fill="#1D252C"/></g><defs><clipPath id="a"><path fill="#fff" d="M0 0h252v63.737H0z"/></clipPath></defs></svg>